<svg width="63" height="63" fill="none" xmlns="http://www.w3.org/2000/svg"><rect width="63" height="63" rx="20" fill="#FFE2D4"/><mask id="a" style="mask-type:alpha" maskUnits="userSpaceOnUse" x="0" y="0" width="63" height="63"><rect width="63" height="63" rx="20" fill="#fff"/></mask><g mask="url(#a)"><path d="M37.204 7.266a8.567 8.567 0 0 0-12.022 1.146l-.433.515-.516-.423A8.548 8.548 0 0 0 13.39 21.712s10.238 7.73 13.413 7.426c3.174-.304 11.704-9.85 11.704-9.85a8.697 8.697 0 0 0-1.304-12.022z" fill="#FF6D25" stroke="#333" stroke-width="2" stroke-miterlimit="10"/><path d="M52.746 25.985a3.17 3.17 0 0 0-3.729-2.405l-.242.056-.056-.242a3.155 3.155 0 0 0-6.162 1.36s1.203 4.587 2.2 5.221c.998.634 5.659-.196 5.659-.196a3.216 3.216 0 0 0 2.33-3.794z" fill="#F9CC4C" stroke="#333" stroke-width="1.4" stroke-miterlimit="10"/><path d="m18.833 37.675-6.619-6.581a4.298 4.298 0 0 0-5.975 0 4.224 4.224 0 0 0 0 5.975l12.044 13.312a4.186 4.186 0 0 0 2.936 1.25l15.969 1.398a3.823 3.823 0 0 1 3.03 1.155l3.029 3.04 10.077-10.078-9.9-9.816a4.195 4.195 0 0 0-2.936-1.249s-15.512 1.482-20.695 1.697a3.794 3.794 0 0 0-2.368.979 2.9 2.9 0 0 0-1.016 2.302 3.382 3.382 0 0 0 3.384 3.393h14.272" fill="#fff"/><path d="m18.833 37.675-6.619-6.581a4.298 4.298 0 0 0-5.975 0 4.224 4.224 0 0 0 0 5.975l12.044 13.312a4.186 4.186 0 0 0 2.936 1.25l15.969 1.398a3.823 3.823 0 0 1 3.03 1.155l3.029 3.04 10.077-10.078-9.9-9.816a4.195 4.195 0 0 0-2.936-1.249s-15.512 1.482-20.695 1.697a3.794 3.794 0 0 0-2.368.979 2.9 2.9 0 0 0-1.016 2.302 3.382 3.382 0 0 0 3.384 3.393h14.272" stroke="#333" stroke-width="2" stroke-linecap="round" stroke-linejoin="round"/><path d="M62 55.5 51.568 65.931a2.368 2.368 0 0 1-3.3 0l-5.86-5.715a2.377 2.377 0 0 1 0-3.3l10.44-10.44a2.368 2.368 0 0 1 3.3 0l5.861 5.715A2.368 2.368 0 0 1 62 55.5z" fill="#6864D5" stroke="#333" stroke-width="2" stroke-linecap="round" stroke-linejoin="round"/></g></svg>