<svg width="63" height="63" fill="none" xmlns="http://www.w3.org/2000/svg"><rect width="63" height="63" rx="20" fill="#FFE2D4"/><mask id="a" style="mask-type:alpha" maskUnits="userSpaceOnUse" x="0" y="0" width="63" height="63"><rect width="63" height="63" rx="20" fill="#fff"/></mask><g mask="url(#a)"><path d="M50.264 32.514H13.047c-.578 0-1.047.468-1.047 1.046v22.226c0 .578.469 1.046 1.047 1.046h37.216c.579 0 1.047-.468 1.047-1.046V33.56c0-.578-.468-1.046-1.047-1.046z" fill="#fff" stroke="#333" stroke-width="2" stroke-miterlimit="10"/><path d="M47.121 35H15.88c-.486 0-.879.366-.879.818v17.364c0 .452.393.818.879.818H47.12c.486 0 .88-.366.88-.818V35.818c0-.452-.394-.818-.88-.818z" fill="#6864D5"/><path d="M31.66 57.859v13.257M23.647 57.859l-6.31 13.257M39.951 57.859l6.31 13.257M31.496 30v2.052" stroke="#333" stroke-width="2" stroke-linecap="round" stroke-linejoin="round"/><path d="m53.406 19.619-3.126 1.33-.808 3.312a.942.942 0 0 1-.26.457.96.96 0 0 1-.467.248.955.955 0 0 1-.957-.279l-2.33-2.5-3.422.238a.98.98 0 0 1-.431 0 .873.873 0 0 1-.458-.385.923.923 0 0 1 0-.998l1.697-2.927-1.347-3.139a.96.96 0 0 1 .229-1.058.984.984 0 0 1 .323-.206.83.83 0 0 1 .566 0l3.354.665 2.695-2.168a.992.992 0 0 1 1.347.12.86.86 0 0 1 .215.505l.391 3.366 2.91 1.782a.976.976 0 0 1 .471.89.964.964 0 0 1-.579.826l-.013-.08z" fill="#FF6D25" stroke="#333" stroke-width="1.1" stroke-miterlimit="10"/><path d="M17.974 25.157c5.464.907 10.628-2.786 11.536-8.25.907-5.464-2.787-10.629-8.251-11.536-5.464-.907-10.629 2.787-11.536 8.25-.907 5.464 2.787 10.63 8.25 11.536z" fill="#F9CC4C" stroke="#333" stroke-width="2" stroke-miterlimit="10"/><path d="m14.958 17.082 2.713 2.216 5.005-7.883" stroke="#333" stroke-width="2" stroke-linecap="round" stroke-linejoin="round"/></g></svg>