<svg width="63" height="63" fill="none" xmlns="http://www.w3.org/2000/svg"><rect width="63" height="63" rx="20" fill="#FFE2D4"/><mask id="a" style="mask-type:alpha" maskUnits="userSpaceOnUse" x="0" y="0" width="63" height="63"><rect width="63" height="63" rx="20" fill="#fff"/></mask><g mask="url(#a)"><path d="M43.714 56.085a4.095 4.095 0 0 1-1.086-.152l-16.4-4.464V74.06a1.738 1.738 0 0 0 .923 1.554l2.954 1.748a27.153 27.153 0 0 0 27.153 0l2.965-1.748a1.782 1.782 0 0 0 .924-1.554V51.47l-16.314 4.464c-.364.101-.74.153-1.119.152z" fill="#6864D5" stroke="#333" stroke-width="2" stroke-linecap="round" stroke-linejoin="round"/><path d="M20.145 47.776v7.527" stroke="#333" stroke-width="2" stroke-linecap="round" stroke-linejoin="round"/><path d="M20.189 59.843a2.715 2.715 0 1 0 0-5.43 2.715 2.715 0 0 0 0 5.43z" fill="#333"/><path d="M43.28 56.085c.315.098.652.098.967 0l29-7.972a1.781 1.781 0 0 0 1.314-1.749 1.814 1.814 0 0 0-1.358-1.749l-29-7.94a1.662 1.662 0 0 0-.977 0l-28.945 7.94a1.824 1.824 0 0 0 0 3.498l29 7.972z" fill="#fff" stroke="#333" stroke-width="2" stroke-linecap="round" stroke-linejoin="round"/><path d="M36.835 26.885h.938l-.145.972L37.164 31l3.685-3.864.233-.251h5.215c.412-.001.81-.159 1.117-.445.309-.285.507-.678.557-1.106l1.026-8.322c.004-.076.004-.151 0-.227 0-.472-.179-.925-.497-1.26A1.67 1.67 0 0 0 47.298 15H34.48a1.7 1.7 0 0 0-1.127.686 1.855 1.855 0 0 0-.34 1.317l1.026 8.323c.053.428.252.822.562 1.107.31.285.708.443 1.12.443l1.114.009z" fill="#FF6D25" stroke="#333" stroke-width="1.8" stroke-miterlimit="10"/><path d="M16.97 28.58a3.08 3.08 0 0 0 3-2.7l1.9-14.39a3.1 3.1 0 0 0-2.66-3.47H-4.05a3.09 3.09 0 0 0-3.08 3.09 2.6 2.6 0 0 0 0 .4l1.83 14.37a3.07 3.07 0 0 0 3 2.7h9.53l.43.43 6.66 6.66-.83-5.46-.26-1.67h3.74v.04z" fill="#F9CC4C" stroke="#333" stroke-width="2" stroke-miterlimit="10"/></g></svg>