<svg width="56" height="56" fill="none" xmlns="http://www.w3.org/2000/svg"><rect width="56" height="56" rx="16" fill="#FFE2D4"/><mask id="a" style="mask-type:alpha" maskUnits="userSpaceOnUse" x="0" y="0" width="56" height="56"><rect width="56" height="56" rx="16" fill="#fff"/></mask><g mask="url(#a)"><path d="m18.744 17.233-3-.343-2.078 2.206a.853.853 0 0 1-.872.226.848.848 0 0 1-.617-.635l-.704-2.956-2.75-1.316a.874.874 0 0 1-.334-.19.776.776 0 0 1-.185-.499.82.82 0 0 1 .438-.771l2.597-1.518.335-3.018a.856.856 0 0 1 .982-.734.74.74 0 0 1 .437.248l2.302 1.986 3.034-.494a.882.882 0 0 1 .989.683.764.764 0 0 1-.055.486l-1.175 2.773 1.467 2.655a.868.868 0 0 1-.026.895.857.857 0 0 1-.81.384l.025-.068z" fill="#FF6D25" stroke="#333" stroke-width="1.1" stroke-miterlimit="10"/><path d="M21.383 42.158c1.324.993 2.482 2.897 2.896 3.724l.414.828h7.449c-.138-.276-.331-1.076 0-2.07.413-1.24 2.896-3.31 3.724-4.965.827-1.655 1.241-5.379-2.483-9.103s-10.345-2.069-12.828 1.241c-2.483 3.31-.828 9.104.828 10.345z" fill="#fff"/><path d="M27.582 52.088c-2.98 0-3.449-3.586-3.31-5.379h7.447c0 2.483-.413 5.38-4.137 5.38z" fill="#fff"/><path d="M32.872 48.306V46.36a3.106 3.106 0 0 1 1.058-2.321 9.523 9.523 0 0 0 .341-14.44 9.49 9.49 0 0 0-15.736 6.043 9.284 9.284 0 0 0 3.345 8.26 3.073 3.073 0 0 1 1.127 2.356v2.082a4.933 4.933 0 0 0 9.865 0v-.034zm-12.289-12.46a7.441 7.441 0 0 1 14.815.82 7.508 7.508 0 0 1-2.765 5.803 5.189 5.189 0 0 0-1.707 2.935h-5.94a5.29 5.29 0 0 0-1.809-3.072 7.168 7.168 0 0 1-2.594-6.486zm7.373 15.361a2.902 2.902 0 0 1-2.867-2.867v-.888h5.735v.854a2.902 2.902 0 0 1-2.868 2.901zM28.974 24.207v-2.15a1.024 1.024 0 1 0-2.048 0v2.15a1.025 1.025 0 0 0 2.048 0zM39.702 26.22a1.024 1.024 0 0 0-1.434 0l-1.502 1.501A1.026 1.026 0 0 0 38.2 29.19l1.502-1.502a1.024 1.024 0 0 0 0-1.468zM17.71 29.191a1.024 1.024 0 0 0 1.434-1.434l-1.502-1.536a1.024 1.024 0 0 0-1.433 1.434l1.502 1.536z" fill="#333"/><path fill-rule="evenodd" clip-rule="evenodd" d="M32.673 40.893c.202-.293.38-.607.532-.935a6.504 6.504 0 0 0 .114-5.146 6.174 6.174 0 0 0-1.445-2.142 5.66 5.66 0 0 0-2.81-1.454 5.472 5.472 0 0 0-3.11.31 5.83 5.83 0 0 0-2.507 1.981 6.364 6.364 0 0 0-1.172 3.077 6.359 6.359 0 0 0 .376 2.953c.186.485.429.941.723 1.356h9.3z" fill="#6864D5"/><path d="M40.283 19.969a6.607 6.607 0 1 0 2.165-13.036 6.607 6.607 0 0 0-2.165 13.036z" fill="#F9CC4C" stroke="#333" stroke-width="1.6" stroke-miterlimit="10"/><path d="m38.302 14.65 1.788 1.46 3.297-5.193" stroke="#333" stroke-width="1.8" stroke-linecap="round" stroke-linejoin="round"/></g></svg>